<svg xmlns="http://www.w3.org/2000/svg" width="1680" height="1206" viewBox="0 0 1680 1206">
  <defs>
    <style>
      .cls-1 {
        fill: #3f525d;
      }

      .cls-1, .cls-2 {
        fill-rule: evenodd;
      }

      .cls-2 {
        fill: #fff;
      }
    </style>
  </defs>
  <path id="design" class="cls-1" d="M0,311s70.923-28.651,116.224-50.343C293.933,175.564,301,126,301,126S297.974,314.046,23.649,474.142C12.7,480.534,0,488,0,488V311Z" transform="translate(0 -126)"/>
  <path id="design_copy" data-name="design copy" class="cls-1" d="M1671.16,1146.91c-35.86,12.15-77.04,28.69-122.34,50.39-177.72,85.12-184.79,134.7-184.79,134.7s-7.12-206.93,277.37-348.255c14.42-7.163,39.04-17.886,39.04-17.886l-0.03,177.6S1674.27,1145.86,1671.16,1146.91Z" transform="translate(0 -126)"/>
  <path id="sections_copy" data-name="sections copy" class="cls-2" d="M-1,318l118.761-12.191,122.674-12.384L1680,148v994L0,1327Z" transform="translate(0 -126)"/>
</svg>
